<?xml version="1.0" standalone="no"?>
<!DOCTYPE svg PUBLIC "-//W3C//DTD SVG 20010904//EN"
 "http://www.w3.org/TR/2001/REC-SVG-20010904/DTD/svg10.dtd">
<svg version="1.0" xmlns="http://www.w3.org/2000/svg"
 width="288.000000pt" height="288.000000pt" viewBox="0 0 288.000000 288.000000"
 preserveAspectRatio="xMidYMid meet">
<metadata>
Created by potrace 1.14, written by Peter Selinger 2001-2017
</metadata>
<g transform="translate(0.000000,288.000000) scale(0.100000,-0.100000)"
fill="#000000" stroke="none">
<path d="M790 2173 c-93 -223 -140 -485 -140 -779 0 -183 6 -250 37 -389 27
-122 97 -299 128 -325 13 -11 15 -3 15 71 0 148 32 372 80 554 44 170 129 380
151 373 23 -8 103 -287 133 -463 9 -49 16 -135 17 -190 1 -142 1 -143 74 -98
33 19 80 47 105 61 93 52 120 73 121 92 1 11 2 23 3 28 1 4 6 27 10 52 12 61
65 186 109 251 43 65 134 156 144 145 5 -4 7 -56 7 -114 -1 -87 -6 -121 -27
-180 l-25 -73 96 51 c54 29 120 73 147 100 65 62 118 88 202 98 l68 9 -60 27
c-62 29 -124 36 -186 23 -36 -7 -36 -7 -42 27 -11 66 -35 102 -90 131 -29 16
-110 61 -180 102 -71 40 -132 73 -136 73 -4 0 -31 -25 -61 -55 -53 -54 -80
-68 -80 -42 0 6 -22 57 -50 112 -53 107 -94 157 -156 191 -22 12 -68 38 -104
59 -36 21 -81 46 -100 57 -19 11 -65 38 -102 59 -36 22 -69 39 -71 39 -3 0
-20 -35 -37 -77z"/>
</g>
</svg>
